<?xml version="1.0" encoding="UTF-8"?><svg id="_Слой_2" xmlns="http://www.w3.org/2000/svg" viewBox="0 0 1190.91 173.77"><defs><style>.cls-1{fill:#e0eeef;}.cls-2{opacity:.62;}</style></defs><g id="_Слой_1-2"><g><g class="cls-2"><path class="cls-1" d="M1042.09,18.52c-28.95,0-51.89-3.93-74.06-7.74-22.31-3.83-45.38-7.79-74.75-7.79s-50.22,3.71-72.7,7.63c-22.23,3.88-45.21,7.89-76.12,7.89s-53.7-4-75.8-7.87c-21.5-3.76-43.73-7.66-73.02-7.66s-47.74,3.55-68.23,7.31c-22.03,4.04-44.81,8.22-80.59,8.22s-56.82-4.07-77.76-8.01c-20.55-3.86-39.96-7.51-71.06-7.51-29.33,0-45.08,3.34-61.75,6.87-19.16,4.06-40.87,8.66-87.06,8.66C64.25,18.52,.63,3.11,0,2.96L.72,.04c.63,.15,63.92,15.48,148.46,15.48,45.88,0,66.5-4.37,86.44-8.59,16.83-3.57,32.73-6.93,62.38-6.93,31.38,0,50.92,3.68,71.62,7.57,20.81,3.91,42.32,7.96,77.2,7.96s58.15-4.15,80.05-8.17c20.62-3.78,40.1-7.36,68.77-7.36s51.91,3.92,73.53,7.7c21.97,3.85,44.7,7.82,75.29,7.82s53.5-3.99,75.6-7.85c21.62-3.77,43.97-7.68,73.22-7.68s52.83,3.98,75.26,7.83c22.05,3.78,44.86,7.7,73.56,7.7s53.6-4.05,77.05-7.96c23.3-3.89,45.31-7.56,71.77-7.56V3c-26.21,0-48.1,3.65-71.27,7.52-23.57,3.93-47.94,8-77.55,8Z"/></g><g class="cls-2"><path class="cls-1" d="M1042.09,26.29c-28.95,0-51.89-3.93-74.06-7.74-22.31-3.83-45.38-7.79-74.75-7.79s-50.22,3.71-72.7,7.63c-22.23,3.88-45.21,7.89-76.12,7.89s-53.7-4-75.8-7.87c-21.5-3.76-43.73-7.66-73.02-7.66s-47.74,3.55-68.23,7.31c-22.03,4.04-44.81,8.22-80.59,8.22s-56.82-4.07-77.76-8.01c-20.55-3.87-39.96-7.51-71.06-7.51-29.33,0-45.08,3.34-61.75,6.87-19.16,4.06-40.87,8.66-87.06,8.66C64.25,26.29,.63,10.88,0,10.72l.72-2.91c.63,.16,63.92,15.48,148.46,15.48,45.88,0,66.5-4.37,86.44-8.59,16.83-3.57,32.73-6.93,62.38-6.93,31.38,0,50.92,3.67,71.62,7.57,20.81,3.91,42.32,7.96,77.2,7.96s58.15-4.15,80.05-8.17c20.62-3.78,40.1-7.35,68.77-7.35s51.91,3.91,73.53,7.7c21.97,3.85,44.7,7.82,75.29,7.82s53.5-3.99,75.6-7.85c21.62-3.77,43.97-7.68,73.22-7.68s52.83,3.98,75.26,7.83c22.05,3.78,44.86,7.7,73.56,7.7s53.6-4.05,77.05-7.96c23.3-3.89,45.31-7.56,71.77-7.56v3c-26.21,0-48.1,3.65-71.27,7.52-23.57,3.93-47.94,8-77.55,8Z"/></g><g class="cls-2"><path class="cls-1" d="M1042.09,34.05c-28.95,0-51.89-3.93-74.06-7.74-22.31-3.83-45.38-7.79-74.75-7.79s-50.22,3.71-72.7,7.63c-22.23,3.88-45.21,7.89-76.12,7.89s-53.7-4-75.8-7.87c-21.5-3.76-43.73-7.66-73.02-7.66s-47.74,3.55-68.23,7.31c-22.03,4.04-44.81,8.22-80.59,8.22s-56.82-4.07-77.76-8.01c-20.55-3.86-39.96-7.51-71.06-7.51-29.33,0-45.08,3.34-61.75,6.87-19.16,4.06-40.87,8.66-87.06,8.66C64.25,34.05,.63,18.64,0,18.48l.72-2.91c.63,.16,63.92,15.48,148.46,15.48,45.88,0,66.5-4.37,86.44-8.59,16.83-3.57,32.73-6.93,62.38-6.93,31.38,0,50.92,3.67,71.62,7.57,20.81,3.91,42.32,7.96,77.2,7.96s58.15-4.15,80.05-8.17c20.62-3.78,40.1-7.35,68.77-7.35s51.91,3.92,73.53,7.7c21.97,3.85,44.7,7.82,75.29,7.82s53.5-3.99,75.6-7.85c21.62-3.77,43.97-7.68,73.22-7.68s52.83,3.98,75.26,7.83c22.05,3.78,44.86,7.7,73.56,7.7s53.6-4.05,77.05-7.96c23.3-3.89,45.31-7.56,71.77-7.56v3c-26.21,0-48.1,3.65-71.27,7.52-23.57,3.93-47.94,8-77.55,8Z"/></g><g class="cls-2"><path class="cls-1" d="M1042.09,41.81c-28.95,0-51.89-3.93-74.06-7.74-22.31-3.83-45.38-7.79-74.75-7.79s-50.22,3.71-72.7,7.63c-22.23,3.88-45.21,7.89-76.12,7.89s-53.7-4-75.8-7.87c-21.5-3.76-43.73-7.66-73.02-7.66s-47.74,3.55-68.23,7.31c-22.03,4.04-44.81,8.22-80.59,8.22s-56.82-4.07-77.76-8.01c-20.55-3.86-39.96-7.51-71.06-7.51-29.33,0-45.08,3.34-61.75,6.87-19.16,4.06-40.87,8.66-87.06,8.66C64.25,41.81,.63,26.4,0,26.24l.72-2.91c.63,.16,63.92,15.48,148.46,15.48,45.88,0,66.5-4.37,86.44-8.59,16.83-3.57,32.73-6.93,62.38-6.93,31.38,0,50.92,3.67,71.62,7.57,20.81,3.91,42.32,7.96,77.2,7.96s58.15-4.15,80.05-8.17c20.62-3.78,40.1-7.35,68.77-7.35s51.91,3.92,73.53,7.7c21.97,3.85,44.7,7.82,75.29,7.82s53.5-3.99,75.6-7.85c21.62-3.77,43.97-7.68,73.22-7.68s52.83,3.98,75.26,7.83c22.05,3.78,44.86,7.7,73.56,7.7s53.6-4.05,77.05-7.96c23.3-3.89,45.31-7.56,71.77-7.56v3c-26.21,0-48.1,3.65-71.27,7.52-23.57,3.93-47.94,8-77.55,8Z"/></g><g class="cls-2"><path class="cls-1" d="M1042.09,49.57c-28.95,0-51.89-3.93-74.06-7.74-22.31-3.83-45.38-7.79-74.75-7.79s-50.22,3.71-72.7,7.63c-22.23,3.88-45.21,7.89-76.12,7.89s-53.7-4-75.8-7.87c-21.5-3.76-43.73-7.66-73.02-7.66s-47.74,3.55-68.23,7.31c-22.03,4.04-44.81,8.22-80.59,8.22s-56.82-4.07-77.76-8.01c-20.55-3.87-39.96-7.51-71.06-7.51-29.33,0-45.08,3.34-61.75,6.87-19.16,4.06-40.87,8.66-87.06,8.66C64.25,49.57,.63,34.16,0,34l.72-2.91c.63,.16,63.92,15.48,148.46,15.48,45.88,0,66.5-4.37,86.44-8.59,16.83-3.57,32.73-6.93,62.38-6.93,31.38,0,50.92,3.67,71.62,7.57,20.81,3.91,42.32,7.96,77.2,7.96s58.15-4.15,80.05-8.17c20.62-3.78,40.1-7.35,68.77-7.35s51.91,3.91,73.53,7.7c21.97,3.85,44.7,7.82,75.29,7.82s53.5-3.99,75.6-7.85c21.62-3.77,43.97-7.68,73.22-7.68s52.83,3.98,75.26,7.83c22.05,3.78,44.86,7.7,73.56,7.7s53.6-4.05,77.05-7.96c23.3-3.89,45.31-7.56,71.77-7.56v3c-26.21,0-48.1,3.65-71.27,7.52-23.57,3.93-47.94,8-77.55,8Z"/></g><g class="cls-2"><path class="cls-1" d="M1042.09,57.33c-28.95,0-51.89-3.93-74.06-7.74-22.31-3.83-45.38-7.79-74.75-7.79s-50.22,3.71-72.7,7.63c-22.23,3.88-45.21,7.89-76.12,7.89s-53.7-4-75.8-7.87c-21.5-3.76-43.73-7.66-73.02-7.66s-47.74,3.55-68.23,7.31c-22.03,4.04-44.81,8.22-80.59,8.22s-56.82-4.07-77.76-8.01c-20.55-3.86-39.96-7.51-71.06-7.51-29.33,0-45.08,3.34-61.75,6.87-19.16,4.06-40.87,8.66-87.06,8.66C64.25,57.33,.63,41.92,0,41.77l.72-2.91c.63,.15,63.92,15.48,148.46,15.48,45.88,0,66.5-4.37,86.44-8.59,16.83-3.57,32.73-6.93,62.38-6.93,31.38,0,50.92,3.68,71.62,7.57,20.81,3.91,42.32,7.96,77.2,7.96s58.15-4.15,80.05-8.17c20.62-3.78,40.1-7.36,68.77-7.36s51.91,3.92,73.53,7.7c21.97,3.85,44.7,7.82,75.29,7.82s53.5-3.99,75.6-7.85c21.62-3.77,43.97-7.68,73.22-7.68s52.83,3.98,75.26,7.83c22.05,3.78,44.86,7.7,73.56,7.7s53.6-4.05,77.05-7.96c23.3-3.89,45.31-7.56,71.77-7.56v3c-26.21,0-48.1,3.65-71.27,7.52-23.57,3.93-47.94,8-77.55,8Z"/></g><g class="cls-2"><path class="cls-1" d="M1042.09,65.1c-28.95,0-51.89-3.93-74.06-7.74-22.31-3.83-45.38-7.79-74.75-7.79s-50.22,3.71-72.7,7.63c-22.23,3.88-45.21,7.89-76.12,7.89s-53.7-4-75.8-7.87c-21.5-3.76-43.73-7.66-73.02-7.66s-47.74,3.55-68.23,7.31c-22.03,4.04-44.81,8.22-80.59,8.22s-56.82-4.07-77.76-8.01c-20.55-3.86-39.96-7.51-71.06-7.51-29.33,0-45.08,3.34-61.75,6.87-19.16,4.06-40.87,8.66-87.06,8.66C64.25,65.1,.63,49.68,0,49.53l.72-2.91c.63,.15,63.92,15.48,148.46,15.48,45.88,0,66.5-4.37,86.44-8.59,16.83-3.57,32.73-6.93,62.38-6.93,31.38,0,50.92,3.68,71.62,7.57,20.81,3.91,42.32,7.96,77.2,7.96s58.15-4.15,80.05-8.17c20.62-3.78,40.1-7.36,68.77-7.36s51.91,3.92,73.53,7.7c21.97,3.85,44.7,7.82,75.29,7.82s53.5-3.99,75.6-7.85c21.62-3.77,43.97-7.68,73.22-7.68s52.83,3.98,75.26,7.83c22.05,3.78,44.86,7.7,73.56,7.7s53.6-4.05,77.05-7.96c23.3-3.89,45.31-7.56,71.77-7.56v3c-26.21,0-48.1,3.65-71.27,7.52-23.57,3.93-47.94,8-77.55,8Z"/></g><g class="cls-2"><path class="cls-1" d="M1042.09,72.86c-28.95,0-51.89-3.93-74.06-7.74-22.31-3.83-45.38-7.79-74.75-7.79s-50.22,3.71-72.7,7.63c-22.23,3.88-45.21,7.89-76.12,7.89s-53.7-4-75.8-7.87c-21.5-3.76-43.73-7.66-73.02-7.66s-47.74,3.55-68.23,7.31c-22.03,4.04-44.81,8.22-80.59,8.22s-56.82-4.07-77.76-8.01c-20.55-3.87-39.96-7.51-71.06-7.51-29.33,0-45.08,3.34-61.75,6.87-19.16,4.06-40.87,8.66-87.06,8.66C64.25,72.86,.63,57.45,0,57.29l.72-2.91c.63,.16,63.92,15.48,148.46,15.48,45.88,0,66.5-4.37,86.44-8.59,16.83-3.57,32.73-6.93,62.38-6.93,31.38,0,50.92,3.67,71.62,7.57,20.81,3.91,42.32,7.96,77.2,7.96s58.15-4.15,80.05-8.17c20.62-3.78,40.1-7.35,68.77-7.35s51.91,3.91,73.53,7.7c21.97,3.85,44.7,7.82,75.29,7.82s53.5-3.99,75.6-7.85c21.62-3.77,43.97-7.68,73.22-7.68s52.83,3.98,75.26,7.83c22.05,3.78,44.86,7.7,73.56,7.7s53.6-4.05,77.05-7.96c23.3-3.89,45.31-7.56,71.77-7.56v3c-26.21,0-48.1,3.65-71.27,7.52-23.57,3.93-47.94,8-77.55,8Z"/></g><g class="cls-2"><path class="cls-1" d="M1042.09,80.62c-28.95,0-51.89-3.93-74.06-7.74-22.31-3.83-45.38-7.79-74.75-7.79s-50.22,3.71-72.7,7.63c-22.23,3.88-45.21,7.89-76.12,7.89s-53.7-4-75.8-7.87c-21.5-3.76-43.73-7.66-73.02-7.66s-47.74,3.55-68.23,7.31c-22.03,4.04-44.81,8.22-80.59,8.22s-56.82-4.07-77.76-8.01c-20.55-3.86-39.96-7.51-71.06-7.51-29.33,0-45.08,3.34-61.75,6.87-19.16,4.06-40.87,8.66-87.06,8.66C64.25,80.62,.63,65.21,0,65.05l.72-2.91c.63,.16,63.92,15.48,148.46,15.48,45.88,0,66.5-4.37,86.44-8.59,16.83-3.57,32.73-6.93,62.38-6.93,31.38,0,50.92,3.67,71.62,7.57,20.81,3.91,42.32,7.96,77.2,7.96s58.15-4.15,80.05-8.17c20.62-3.78,40.1-7.35,68.77-7.35s51.91,3.92,73.53,7.7c21.97,3.85,44.7,7.82,75.29,7.82s53.5-3.99,75.6-7.85c21.62-3.77,43.97-7.68,73.22-7.68s52.83,3.98,75.26,7.83c22.05,3.78,44.86,7.7,73.56,7.7s53.6-4.05,77.05-7.96c23.3-3.89,45.31-7.56,71.77-7.56v3c-26.21,0-48.1,3.65-71.27,7.52-23.57,3.93-47.94,8-77.55,8Z"/></g><g class="cls-2"><path class="cls-1" d="M1042.09,88.38c-28.95,0-51.89-3.93-74.06-7.74-22.31-3.83-45.38-7.79-74.75-7.79s-50.22,3.71-72.7,7.63c-22.23,3.88-45.21,7.89-76.12,7.89s-53.7-4-75.8-7.87c-21.5-3.76-43.73-7.66-73.02-7.66s-47.74,3.55-68.23,7.31c-22.03,4.04-44.81,8.22-80.59,8.22s-56.82-4.07-77.76-8.01c-20.55-3.86-39.96-7.51-71.06-7.51-29.33,0-45.08,3.34-61.75,6.87-19.16,4.06-40.87,8.66-87.06,8.66C64.25,88.38,.63,72.97,0,72.81l.72-2.91c.63,.16,63.92,15.48,148.46,15.48,45.88,0,66.5-4.37,86.44-8.59,16.83-3.57,32.73-6.93,62.38-6.93,31.38,0,50.92,3.67,71.62,7.57,20.81,3.91,42.32,7.96,77.2,7.96s58.15-4.15,80.05-8.17c20.62-3.78,40.1-7.35,68.77-7.35s51.91,3.92,73.53,7.7c21.97,3.85,44.7,7.82,75.29,7.82s53.5-3.99,75.6-7.85c21.62-3.77,43.97-7.68,73.22-7.68s52.83,3.98,75.26,7.83c22.05,3.78,44.86,7.7,73.56,7.7s53.6-4.05,77.05-7.96c23.3-3.89,45.31-7.56,71.77-7.56v3c-26.21,0-48.1,3.65-71.27,7.52-23.57,3.93-47.94,8-77.55,8Z"/></g><g class="cls-2"><path class="cls-1" d="M1042.09,96.14c-28.95,0-51.89-3.93-74.06-7.74-22.31-3.83-45.38-7.79-74.75-7.79s-50.22,3.71-72.7,7.63c-22.23,3.88-45.21,7.89-76.12,7.89s-53.7-4-75.8-7.87c-21.5-3.76-43.73-7.66-73.02-7.66s-47.74,3.55-68.23,7.31c-22.03,4.04-44.81,8.22-80.59,8.22s-56.82-4.07-77.76-8.01c-20.55-3.87-39.96-7.51-71.06-7.51-29.33,0-45.08,3.34-61.75,6.87-19.16,4.06-40.87,8.66-87.06,8.66C64.25,96.14,.63,80.73,0,80.58l.72-2.91c.63,.16,63.92,15.48,148.46,15.48,45.88,0,66.5-4.37,86.44-8.59,16.83-3.57,32.73-6.93,62.38-6.93,31.38,0,50.92,3.67,71.62,7.57,20.81,3.91,42.32,7.96,77.2,7.96s58.15-4.15,80.05-8.17c20.62-3.78,40.1-7.35,68.77-7.35s51.91,3.91,73.53,7.7c21.97,3.85,44.7,7.82,75.29,7.82s53.5-3.99,75.6-7.85c21.62-3.77,43.97-7.68,73.22-7.68s52.83,3.98,75.26,7.83c22.05,3.78,44.86,7.7,73.56,7.7s53.6-4.05,77.05-7.96c23.3-3.89,45.31-7.56,71.77-7.56v3c-26.21,0-48.1,3.65-71.27,7.52-23.57,3.93-47.94,8-77.55,8Z"/></g><g class="cls-2"><path class="cls-1" d="M1042.09,103.91c-28.95,0-51.89-3.93-74.06-7.74-22.31-3.83-45.38-7.79-74.75-7.79s-50.22,3.71-72.7,7.63c-22.23,3.88-45.21,7.89-76.12,7.89s-53.7-4-75.8-7.87c-21.5-3.76-43.73-7.66-73.02-7.66s-47.74,3.55-68.23,7.31c-22.03,4.04-44.81,8.22-80.59,8.22s-56.82-4.07-77.76-8.01c-20.55-3.86-39.96-7.51-71.06-7.51-29.33,0-45.08,3.34-61.75,6.87-19.16,4.06-40.87,8.66-87.06,8.66C64.25,103.91,.63,88.5,0,88.34l.72-2.91c.63,.15,63.92,15.48,148.46,15.48,45.88,0,66.5-4.37,86.44-8.59,16.83-3.57,32.73-6.93,62.38-6.93,31.38,0,50.92,3.68,71.62,7.57,20.81,3.91,42.32,7.96,77.2,7.96s58.15-4.15,80.05-8.17c20.62-3.78,40.1-7.36,68.77-7.36s51.91,3.92,73.53,7.7c21.97,3.85,44.7,7.82,75.29,7.82s53.5-3.99,75.6-7.85c21.62-3.77,43.97-7.68,73.22-7.68s52.83,3.98,75.26,7.83c22.05,3.78,44.86,7.7,73.56,7.7s53.6-4.05,77.05-7.96c23.3-3.89,45.31-7.56,71.77-7.56v3c-26.21,0-48.1,3.65-71.27,7.52-23.57,3.93-47.94,8-77.55,8Z"/></g><g class="cls-2"><path class="cls-1" d="M1042.09,111.67c-28.95,0-51.89-3.93-74.06-7.74-22.31-3.83-45.38-7.79-74.75-7.79s-50.22,3.71-72.7,7.63c-22.23,3.88-45.21,7.89-76.12,7.89s-53.7-4-75.8-7.87c-21.5-3.76-43.73-7.66-73.02-7.66s-47.74,3.55-68.23,7.31c-22.03,4.04-44.81,8.22-80.59,8.22s-56.82-4.07-77.76-8.01c-20.55-3.86-39.96-7.51-71.06-7.51-29.33,0-45.08,3.34-61.75,6.87-19.16,4.06-40.87,8.66-87.06,8.66C64.25,111.67,.63,96.26,0,96.1l.72-2.91c.63,.15,63.92,15.48,148.46,15.48,45.88,0,66.5-4.37,86.44-8.59,16.83-3.57,32.73-6.93,62.38-6.93,31.38,0,50.92,3.68,71.62,7.57,20.81,3.91,42.32,7.96,77.2,7.96s58.15-4.15,80.05-8.17c20.62-3.78,40.1-7.36,68.77-7.36s51.91,3.92,73.53,7.7c21.97,3.85,44.7,7.82,75.29,7.82s53.5-3.99,75.6-7.85c21.62-3.77,43.97-7.68,73.22-7.68s52.83,3.98,75.26,7.83c22.05,3.78,44.86,7.7,73.56,7.7s53.6-4.05,77.05-7.96c23.3-3.89,45.31-7.56,71.77-7.56v3c-26.21,0-48.1,3.65-71.27,7.52-23.57,3.93-47.94,8-77.55,8Z"/></g><g class="cls-2"><path class="cls-1" d="M1042.09,119.43c-28.95,0-51.89-3.93-74.06-7.74-22.31-3.83-45.38-7.79-74.75-7.79s-50.22,3.71-72.7,7.63c-22.23,3.88-45.21,7.89-76.12,7.89s-53.7-4-75.8-7.87c-21.5-3.76-43.73-7.66-73.02-7.66s-47.74,3.55-68.23,7.31c-22.03,4.04-44.81,8.22-80.59,8.22s-56.82-4.07-77.76-8.01c-20.55-3.87-39.96-7.51-71.06-7.51-29.33,0-45.08,3.34-61.75,6.87-19.16,4.06-40.87,8.66-87.06,8.66C64.25,119.43,.63,104.02,0,103.86l.72-2.91c.63,.16,63.92,15.48,148.46,15.48,45.88,0,66.5-4.37,86.44-8.59,16.83-3.57,32.73-6.93,62.38-6.93,31.38,0,50.92,3.67,71.62,7.57,20.81,3.91,42.32,7.96,77.2,7.96s58.15-4.15,80.05-8.17c20.62-3.78,40.1-7.35,68.77-7.35s51.91,3.91,73.53,7.7c21.97,3.85,44.7,7.82,75.29,7.82s53.5-3.99,75.6-7.85c21.62-3.77,43.97-7.68,73.22-7.68s52.83,3.98,75.26,7.83c22.05,3.78,44.86,7.7,73.56,7.7s53.6-4.05,77.05-7.96c23.3-3.89,45.31-7.56,71.77-7.56v3c-26.21,0-48.1,3.65-71.27,7.52-23.57,3.93-47.94,8-77.55,8Z"/></g><g class="cls-2"><path class="cls-1" d="M1042.09,127.19c-28.95,0-51.89-3.93-74.06-7.74-22.31-3.83-45.38-7.79-74.75-7.79s-50.22,3.71-72.7,7.63c-22.23,3.88-45.21,7.89-76.12,7.89s-53.7-4-75.8-7.87c-21.5-3.76-43.73-7.66-73.02-7.66s-47.74,3.55-68.23,7.31c-22.03,4.04-44.81,8.22-80.59,8.22s-56.82-4.07-77.76-8.01c-20.55-3.86-39.96-7.51-71.06-7.51-29.33,0-45.08,3.34-61.75,6.87-19.16,4.06-40.87,8.66-87.06,8.66C64.25,127.19,.63,111.78,0,111.62l.72-2.91c.63,.16,63.92,15.48,148.46,15.48,45.88,0,66.5-4.37,86.44-8.59,16.83-3.57,32.73-6.93,62.38-6.93,31.38,0,50.92,3.67,71.62,7.57,20.81,3.91,42.32,7.96,77.2,7.96s58.15-4.15,80.05-8.17c20.62-3.78,40.1-7.35,68.77-7.35s51.91,3.92,73.53,7.7c21.97,3.85,44.7,7.82,75.29,7.82s53.5-3.99,75.6-7.85c21.62-3.77,43.97-7.68,73.22-7.68s52.83,3.98,75.26,7.83c22.05,3.78,44.86,7.7,73.56,7.7s53.6-4.05,77.05-7.96c23.3-3.89,45.31-7.56,71.77-7.56v3c-26.21,0-48.1,3.65-71.27,7.52-23.57,3.93-47.94,8-77.55,8Z"/></g><g class="cls-2"><path class="cls-1" d="M1042.09,134.96c-28.95,0-51.89-3.93-74.06-7.74-22.31-3.83-45.38-7.79-74.75-7.79s-50.22,3.71-72.7,7.63c-22.23,3.88-45.21,7.89-76.12,7.89s-53.7-4-75.8-7.87c-21.5-3.76-43.73-7.66-73.02-7.66s-47.74,3.55-68.23,7.31c-22.03,4.04-44.81,8.22-80.59,8.22s-56.82-4.07-77.76-8.01c-20.55-3.86-39.96-7.51-71.06-7.51-29.33,0-45.08,3.34-61.75,6.87-19.16,4.06-40.87,8.66-87.06,8.66C64.25,134.96,.63,119.54,0,119.39l.72-2.91c.63,.16,63.92,15.48,148.46,15.48,45.88,0,66.5-4.37,86.44-8.59,16.83-3.57,32.73-6.93,62.38-6.93,31.38,0,50.92,3.67,71.62,7.57,20.81,3.91,42.32,7.96,77.2,7.96s58.15-4.15,80.05-8.17c20.62-3.78,40.1-7.35,68.77-7.35s51.91,3.92,73.53,7.7c21.97,3.85,44.7,7.82,75.29,7.82s53.5-3.99,75.6-7.85c21.62-3.77,43.97-7.68,73.22-7.68s52.83,3.98,75.26,7.83c22.05,3.78,44.86,7.7,73.56,7.7s53.6-4.05,77.05-7.96c23.3-3.89,45.31-7.56,71.77-7.56v3c-26.21,0-48.1,3.65-71.27,7.52-23.57,3.93-47.94,8-77.55,8Z"/></g><g class="cls-2"><path class="cls-1" d="M1042.09,142.72c-28.95,0-51.89-3.93-74.06-7.74-22.31-3.83-45.38-7.79-74.75-7.79s-50.22,3.71-72.7,7.63c-22.23,3.88-45.21,7.89-76.12,7.89s-53.7-4-75.8-7.87c-21.5-3.76-43.73-7.66-73.02-7.66s-47.74,3.55-68.23,7.31c-22.03,4.04-44.81,8.22-80.59,8.22s-56.82-4.07-77.76-8.01c-20.55-3.87-39.96-7.51-71.06-7.51-29.33,0-45.08,3.34-61.75,6.87-19.16,4.06-40.87,8.66-87.06,8.66C64.25,142.72,.63,127.31,0,127.15l.72-2.91c.63,.16,63.92,15.48,148.46,15.48,45.88,0,66.5-4.37,86.44-8.59,16.83-3.57,32.73-6.93,62.38-6.93,31.38,0,50.92,3.67,71.62,7.57,20.81,3.91,42.32,7.96,77.2,7.96s58.15-4.15,80.05-8.17c20.62-3.78,40.1-7.35,68.77-7.35s51.91,3.91,73.53,7.7c21.97,3.85,44.7,7.82,75.29,7.82s53.5-3.99,75.6-7.85c21.62-3.77,43.97-7.68,73.22-7.68s52.83,3.98,75.26,7.83c22.05,3.78,44.86,7.7,73.56,7.7s53.6-4.05,77.05-7.96c23.3-3.89,45.31-7.56,71.77-7.56v3c-26.21,0-48.1,3.65-71.27,7.52-23.57,3.93-47.94,8-77.55,8Z"/></g><g class="cls-2"><path class="cls-1" d="M1042.09,150.48c-28.95,0-51.89-3.93-74.06-7.74-22.31-3.83-45.38-7.79-74.75-7.79s-50.22,3.71-72.7,7.63c-22.23,3.88-45.21,7.89-76.12,7.89s-53.7-4-75.8-7.87c-21.5-3.76-43.73-7.66-73.02-7.66s-47.74,3.55-68.23,7.31c-22.03,4.04-44.81,8.22-80.59,8.22s-56.82-4.07-77.76-8.01c-20.55-3.86-39.96-7.51-71.06-7.51-29.33,0-45.08,3.34-61.75,6.87-19.16,4.06-40.87,8.66-87.06,8.66C64.25,150.48,.63,135.07,0,134.91l.72-2.91c.63,.15,63.92,15.48,148.46,15.48,45.88,0,66.5-4.37,86.44-8.59,16.83-3.57,32.73-6.93,62.38-6.93,31.38,0,50.92,3.68,71.62,7.57,20.81,3.91,42.32,7.96,77.2,7.96s58.15-4.15,80.05-8.17c20.62-3.78,40.1-7.36,68.77-7.36s51.91,3.92,73.53,7.7c21.97,3.85,44.7,7.82,75.29,7.82s53.5-3.99,75.6-7.85c21.62-3.77,43.97-7.68,73.22-7.68s52.83,3.98,75.26,7.83c22.05,3.78,44.86,7.7,73.56,7.7s53.6-4.05,77.05-7.96c23.3-3.89,45.31-7.56,71.77-7.56v3c-26.21,0-48.1,3.65-71.27,7.52-23.57,3.93-47.94,8-77.55,8Z"/></g><g class="cls-2"><path class="cls-1" d="M1042.09,158.24c-28.95,0-51.89-3.93-74.06-7.74-22.31-3.83-45.38-7.79-74.75-7.79s-50.22,3.71-72.7,7.63c-22.23,3.88-45.21,7.89-76.12,7.89s-53.7-4-75.8-7.87c-21.5-3.76-43.73-7.66-73.02-7.66s-47.74,3.55-68.23,7.31c-22.03,4.04-44.81,8.22-80.59,8.22s-56.82-4.07-77.76-8.01c-20.55-3.86-39.96-7.51-71.06-7.51-29.33,0-45.08,3.34-61.75,6.87-19.16,4.06-40.87,8.66-87.06,8.66C64.25,158.24,.63,142.83,0,142.67l.72-2.91c.63,.15,63.92,15.48,148.46,15.48,45.88,0,66.5-4.37,86.44-8.59,16.83-3.57,32.73-6.93,62.38-6.93,31.38,0,50.92,3.68,71.62,7.57,20.81,3.91,42.32,7.96,77.2,7.96s58.15-4.15,80.05-8.17c20.62-3.78,40.1-7.36,68.77-7.36s51.91,3.92,73.53,7.7c21.97,3.85,44.7,7.82,75.29,7.82s53.5-3.99,75.6-7.85c21.62-3.77,43.97-7.68,73.22-7.68s52.83,3.98,75.26,7.83c22.05,3.78,44.86,7.7,73.56,7.7s53.6-4.05,77.05-7.96c23.3-3.89,45.31-7.56,71.77-7.56v3c-26.21,0-48.1,3.65-71.27,7.52-23.57,3.93-47.94,8-77.55,8Z"/></g><g class="cls-2"><path class="cls-1" d="M1042.09,166c-28.95,0-51.89-3.93-74.06-7.74-22.31-3.83-45.38-7.79-74.75-7.79s-50.22,3.71-72.7,7.63c-22.23,3.88-45.21,7.89-76.12,7.89s-53.7-4-75.8-7.87c-21.5-3.76-43.73-7.66-73.02-7.66s-47.74,3.55-68.23,7.31c-22.03,4.04-44.81,8.22-80.59,8.22s-56.82-4.07-77.76-8.01c-20.55-3.86-39.96-7.51-71.06-7.51-29.33,0-45.08,3.34-61.75,6.87-19.16,4.06-40.87,8.66-87.06,8.66C64.25,166,.63,150.59,0,150.44l.72-2.91c.63,.16,63.92,15.48,148.46,15.48,45.88,0,66.5-4.37,86.44-8.59,16.83-3.57,32.73-6.93,62.38-6.93,31.38,0,50.92,3.67,71.62,7.57,20.81,3.91,42.32,7.96,77.2,7.96s58.15-4.15,80.05-8.17c20.62-3.78,40.1-7.35,68.77-7.35s51.91,3.92,73.53,7.7c21.97,3.85,44.7,7.82,75.29,7.82s53.5-3.99,75.6-7.85c21.62-3.77,43.97-7.68,73.22-7.68s52.83,3.98,75.26,7.83c22.05,3.78,44.86,7.7,73.56,7.7s53.6-4.05,77.05-7.96c23.3-3.89,45.31-7.56,71.77-7.56v3c-26.21,0-48.1,3.65-71.27,7.52-23.57,3.93-47.94,8-77.55,8Z"/></g><g class="cls-2"><path class="cls-1" d="M1042.09,173.77c-28.95,0-51.89-3.93-74.06-7.74-22.31-3.83-45.38-7.79-74.75-7.79s-50.22,3.71-72.7,7.63c-22.23,3.88-45.21,7.89-76.12,7.89s-53.7-4-75.8-7.87c-21.5-3.76-43.73-7.66-73.02-7.66s-47.74,3.55-68.23,7.31c-22.03,4.04-44.81,8.22-80.59,8.22s-56.82-4.07-77.76-8.01c-20.55-3.86-39.96-7.51-71.06-7.51-29.33,0-45.08,3.34-61.75,6.87-19.16,4.06-40.87,8.66-87.06,8.66C64.25,173.77,.63,158.35,0,158.2l.72-2.91c.63,.16,63.92,15.48,148.46,15.48,45.88,0,66.5-4.37,86.44-8.59,16.83-3.57,32.73-6.93,62.38-6.93,31.38,0,50.92,3.67,71.62,7.57,20.81,3.91,42.32,7.96,77.2,7.96s58.15-4.15,80.05-8.17c20.62-3.78,40.1-7.35,68.77-7.35s51.91,3.92,73.53,7.7c21.97,3.85,44.7,7.82,75.29,7.82s53.5-3.99,75.6-7.85c21.62-3.77,43.97-7.68,73.22-7.68s52.83,3.98,75.26,7.83c22.05,3.78,44.86,7.7,73.56,7.7s53.6-4.05,77.05-7.96c23.3-3.89,45.31-7.56,71.77-7.56v3c-26.21,0-48.1,3.65-71.27,7.52-23.57,3.93-47.94,8-77.55,8Z"/></g></g></g></svg>